<svg width="140" height="32" viewBox="0 0 140 32" fill="none" xmlns="http://www.w3.org/2000/svg">
    <path d="M37.8 19.8h-4.3v10.5h-4.2V1.6h8.5c5 0 9 3.5 9 8.2s-4 8-9 8zm0-4.3c2.4 0 4.3-1.6 4.3-3.8s-1.9-3.9-4.3-3.9h-4.2v7.7h4.2zM56.8 28.5l-4.2-10.7-4.2 10.7h-4.5L38.4 1.6h4.5l4.2 10.6L51.3 1.6h4.5l-5.6 15.6 5.6 13.3zM78.6 1.6h-4.4v28.7h4.4v-9l6.3 9h4.9l-7-9.8 6.7-9.9h-4.8l-4.1 6.8zM92.9 1.6h4.2v28.7h-4.2zM120.9 19.8h-4.3v10.5h-4.2V1.6h8.5c5 0 9 3.5 9 8.2s-4 8-9 8zm0-4.3c2.4 0 4.3-1.6 4.3-3.8s-1.9-3.9-4.3-3.9h-4.2v7.7h4.2zM134.1 11.5c0-5.8-4.2-9.9-10-9.9h-8.7v28.7h4.2V19.8h4.5l6.3 10.5h4.9l-7-9.8c3.5-1.2 5.8-4.3 5.8-8zM124.1 6h4.3c2.4 0 4.3 1.6 4.3 3.8s-1.9 3.9-4.3 3.9h-4.3V6z" fill="white"></path>
    <path d="M16 32C7.2 32 0 24.8 0 16S7.2 0 16 0c7.3 0 13.7 4.8 15.5 11.5h-4.3c-1.5-4.5-5.7-7.7-10.7-7.7-6.3 0-11.5 5.2-11.5 11.5s5.2 11.5 11.5 11.5c5 0 9.2-3.2 10.7-7.7h4.3C29.7 27.2 23.3 32 16 32z" fill="#FFC220"></path>
</svg>